<svg xmlns="http://www.w3.org/2000/svg" xmlns:xlink="http://www.w3.org/1999/xlink" viewBox="0 0 457.39 94.18"><defs><style>.cls-1{fill:#fff;}.cls-2{fill:url(#linear-gradient);}</style><linearGradient id="linear-gradient" x1="27.03" y1="49.49" x2="117.73" y2="49.49" gradientUnits="userSpaceOnUse"><stop offset="0.12" stop-color="#ff6e1f"/><stop offset="0.79" stop-color="#f9ca06"/></linearGradient></defs><g id="Layer_2" data-name="Layer 2"><g id="Layer_1-2" data-name="Layer 1"><polygon class="cls-1" points="182.35 9.39 132.84 9.39 132.84 19.53 152.07 19.53 152.07 69.6 163.21 69.6 163.21 19.53 182.35 19.53 182.35 9.39"/><path class="cls-1" d="M196.89,25.61c-6.61,0-12.07,2.11-16.23,6.27s-6.27,9.56-6.27,16.06c0,6.84,2.13,12.38,6.32,16.49s9.82,6.18,16.76,6.18a28.2,28.2,0,0,0,10.13-1.9,21.48,21.48,0,0,0,8.22-5.4l.56-.61-6.82-6.61-.59.64a11.89,11.89,0,0,1-4.88,3,19,19,0,0,1-6.45,1.17,13.77,13.77,0,0,1-8.71-2.67,9.85,9.85,0,0,1-3.75-6h33.21l.07-.76c.8-8.35-.82-14.81-4.81-19.21S204,25.61,196.89,25.61Zm8.3,11.79a8.57,8.57,0,0,1,3.22,5.85h-23a10.75,10.75,0,0,1,3.9-5.83,14.2,14.2,0,0,1,15.86,0Z"/><path class="cls-1" d="M254.4,57.05a12.19,12.19,0,0,1-9.18,3.59,12.42,12.42,0,0,1-8.78-3.29c-2.32-2.16-3.49-5.24-3.49-9.16a12.16,12.16,0,0,1,3.51-9.14,12,12,0,0,1,8.85-3.47A11.79,11.79,0,0,1,254,39l.62.59,6.68-7L260.7,32a21.36,21.36,0,0,0-15.48-6.35A23,23,0,0,0,229.1,31.6c-4.29,3.94-6.46,9.52-6.46,16.59s2.17,12.65,6.46,16.59a23,23,0,0,0,16.12,5.91A22.39,22.39,0,0,0,261.45,64l.61-.61-7.07-7Z"/><path class="cls-1" d="M288.86,26.11a16.38,16.38,0,0,0-12.53,5.16V9.39H266V69.6h10.3V47.27a11.79,11.79,0,0,1,3-8.17,9.64,9.64,0,0,1,7.52-3.27,9,9,0,0,1,7,2.7c1.68,1.8,2.53,4.52,2.53,8.07v23h10.31V46.52c0-6.25-1.5-11.25-4.46-14.87S294.73,26.11,288.86,26.11Z"/><path class="cls-1" d="M337.08,25.78a20.44,20.44,0,0,0-8.67,2,15.24,15.24,0,0,0-5,3.54V9.47h-10.3V69.6h9.74l.38-5c3.18,3.86,7.75,5.81,13.63,5.81,6.33,0,11.62-2,15.72-6s6.2-9.48,6.2-16.32c0-7-2.06-12.54-6.11-16.45S343.41,25.78,337.08,25.78Zm11.44,22.33A12.16,12.16,0,0,1,345,57.24a11.74,11.74,0,0,1-8.68,3.48,11.91,11.91,0,0,1-8.81-3.52A12.12,12.12,0,0,1,324,48.11a12.55,12.55,0,0,1,21.09-9.18C347.36,41.15,348.52,44.24,348.52,48.11Z"/><path class="cls-1" d="M395.25,49a12,12,0,0,1-3,8.29,9.67,9.67,0,0,1-7.6,3.32c-3.3,0-5.78-1-7.61-3a11.55,11.55,0,0,1-2.75-8V26.7H364v23c0,6.32,1.69,11.37,5,15a17.13,17.13,0,0,0,13.21,5.54,18.77,18.77,0,0,0,13.53-5.58l.41,5h9.4v-43H395.25Z"/><path class="cls-1" d="M447.82,63a16.87,16.87,0,0,0,6.67-5.75A18.29,18.29,0,0,0,457.39,47c0-10.6-6-15.52-11.29-18.62a22.09,22.09,0,0,0-11.55-3,24.75,24.75,0,0,0-16.25,5.67c-4.59,3.8-6.91,9.16-6.91,15.91,0,6.57,2.14,11.85,6.38,15.68s9.86,5.73,16.78,5.73a16.09,16.09,0,0,1,8.94,2.2,6.61,6.61,0,0,1,3.17,5.9,6,6,0,0,1-3.49,5.53,17.93,17.93,0,0,1-8.77,2.07,16.15,16.15,0,0,1-8.94-2.57,7,7,0,0,1-3.35-6.5l0-.88H411.83l0,.82c-.17,5.93,1.83,10.67,5.95,14.09s9.67,5.09,16.64,5.09a28,28,0,0,0,16-4.58,15,15,0,0,0,6.93-13.07C457.3,70.26,454.11,65.72,447.82,63ZM421.77,47c0-3.84,1.2-6.7,3.67-8.75a13.84,13.84,0,0,1,9.11-3.11,13,13,0,0,1,8.93,3.22,10.83,10.83,0,0,1,3.6,8.64,10.94,10.94,0,0,1-3.53,8.45,12.71,12.71,0,0,1-9,3.33,13.65,13.65,0,0,1-9.18-3.14C423,53.58,421.77,50.75,421.77,47Z"/><path class="cls-1" d="M69.19,61a6.79,6.79,0,0,0-7.11,3,26.34,26.34,0,1,1,.06-28.94,6.72,6.72,0,0,0,7,2.91l.41-.09a6.72,6.72,0,0,0,4.2-10.14,40.1,40.1,0,1,0-.09,43.63A6.75,6.75,0,0,0,69.58,61.1Z"/><path class="cls-1" d="M6.88,0h0a6.88,6.88,0,0,1,6.88,6.88V49.49a0,0,0,0,1,0,0H0a0,0,0,0,1,0,0V6.88A6.88,6.88,0,0,1,6.88,0Z"/><path class="cls-2" d="M117.73,49.48A17.86,17.86,0,0,0,86.08,38.13l-.35.43a24.82,24.82,0,0,1-36.67,1.81l-.05,0a12.91,12.91,0,1,0,0,18.34l.05,0a24.84,24.84,0,0,1,36.75,1.89,17.86,17.86,0,0,0,31.92-11Z"/></g></g></svg>